<svg fill = "#fff" xmlns="http://www.w3.org/2000/svg" width="23.033" height="20.47" viewBox="0 0 23.033 20.47"><path d="M16.1,3.33l3.607,3.607a.391.391,0,0,1,0,.552l-8.733,8.733-3.711.412a.778.778,0,0,1-.86-.86l.412-3.711L15.547,3.33A.391.391,0,0,1,16.1,3.33Zm6.478-.916L20.626.463a1.564,1.564,0,0,0-2.207,0L17,1.878a.391.391,0,0,0,0,.552L20.61,6.037a.391.391,0,0,0,.552,0l1.416-1.416a1.564,1.564,0,0,0,0-2.207ZM15.355,13.847v4.071H2.559V5.122h9.189a.492.492,0,0,0,.34-.14l1.6-1.6a.48.48,0,0,0-.34-.82H1.919A1.92,1.92,0,0,0,0,4.482V18.558a1.92,1.92,0,0,0,1.919,1.919H16a1.92,1.92,0,0,0,1.919-1.919v-6.31a.481.481,0,0,0-.82-.34l-1.6,1.6A.492.492,0,0,0,15.355,13.847Z" transform="translate(0 -0.007)"/></svg>
